<svg version="1.1" id="Layer_1" xmlns="http://www.w3.org/2000/svg" xmlns:xlink="http://www.w3.org/1999/xlink" x="0px" y="0px"
	 width="100%" viewBox="0 0 2000 600" enable-background="new 0 0 2000 600" xml:space="preserve">
<path fill="#010202" opacity="1.000000" stroke="none" 
	d="
M1458.000000,601.000000 
	C972.000000,601.000000 486.500000,601.000000 1.000000,601.000000 
	C1.000000,401.000000 1.000000,201.000000 1.000000,1.000000 
	C667.666687,1.000000 1334.333374,1.000000 2001.000000,1.000000 
	C2001.000000,201.000000 2001.000000,401.000000 2001.000000,601.000000 
	C1820.166626,601.000000 1639.333374,601.000000 1458.000000,601.000000 
M1192.298096,257.567139 
	C1191.878296,257.694763 1191.458374,257.822418 1191.115845,257.932922 
	C1191.115845,257.932922 1191.115845,257.853699 1190.788086,257.193542 
	C1173.810669,257.091400 1156.833130,256.979034 1139.855713,256.894531 
	C1135.687500,256.873779 1135.803955,259.746552 1135.807617,262.770477 
	C1135.851074,298.431091 1135.835205,334.091766 1135.835327,369.752441 
	C1135.835449,379.750763 1135.918213,389.750122 1135.790527,399.746796 
	C1135.749512,402.952698 1136.957886,404.354340 1140.148193,404.299561 
	C1144.479492,404.225159 1148.841064,403.982788 1153.138184,404.375793 
	C1157.914795,404.812683 1159.050659,402.930756 1158.988770,398.400574 
	C1158.749878,380.906769 1158.838135,363.407349 1158.980591,345.911438 
	C1158.993896,344.279083 1160.142212,341.313080 1160.944336,341.249542 
	C1165.902100,340.856995 1171.069946,340.410522 1175.833740,341.476410 
	C1178.055908,341.973602 1179.637573,345.745575 1181.312988,348.169128 
	C1183.380981,351.160461 1185.235840,354.298737 1187.197510,357.364105 
	C1196.385620,371.721680 1205.616455,386.052246 1214.738159,400.451965 
	C1216.524048,403.271454 1218.701660,404.504028 1222.104370,404.357422 
	C1227.759644,404.113739 1233.435913,404.386841 1239.096680,404.221191 
	C1240.593506,404.177368 1242.066528,403.324799 1243.550415,402.843689 
	C1242.981934,401.533569 1242.603271,400.094788 1241.816040,398.932800 
	C1231.525757,383.743805 1221.159058,368.606415 1210.852905,353.428101 
	C1206.618286,347.191681 1202.482178,340.888306 1198.757446,335.299835 
	C1203.296753,331.491821 1207.161377,328.249725 1211.320312,324.596985 
	C1211.227539,324.456451 1211.134766,324.315948 1211.635254,323.780762 
	C1211.969849,323.443726 1212.304565,323.106720 1213.074097,323.210205 
	C1213.302002,322.689362 1213.530029,322.168518 1214.196289,321.242889 
	C1214.328613,321.094452 1214.460938,320.945984 1215.111328,321.193146 
	C1217.443359,317.614319 1220.136963,314.209991 1221.978882,310.394562 
	C1223.182983,307.900787 1223.152222,304.810883 1223.801147,301.249786 
	C1223.871704,300.504242 1223.942383,299.758667 1224.660400,298.818481 
	C1226.242432,295.417236 1227.898560,292.011627 1224.008911,288.110321 
	C1223.899536,286.745544 1223.790283,285.380798 1224.237915,283.592102 
	C1223.156738,273.615448 1217.328613,266.942566 1208.975708,262.245850 
	C1206.922852,261.091614 1204.310669,260.931976 1201.343872,260.133698 
	C1200.925659,260.056152 1200.507568,259.978607 1199.957642,259.228973 
	C1197.622192,258.750092 1195.286743,258.271240 1192.298096,257.567139 
M654.342834,309.070679 
	C654.290039,308.376892 654.237244,307.683136 654.687805,306.374725 
	C654.619507,303.893005 654.833008,301.364807 654.432434,298.937958 
	C652.987427,290.186340 651.303284,281.474548 649.773621,272.736511 
	C648.809143,267.226807 648.054443,261.679291 647.033264,256.180786 
	C645.712158,249.067352 644.077515,242.010422 642.839905,234.883667 
	C641.601135,227.750168 640.769104,220.546295 639.550659,213.408798 
	C639.330261,212.117722 638.104614,210.998245 637.251892,209.200073 
	C637.226685,208.796799 637.201477,208.393539 637.691345,207.383286 
	C637.625671,204.897980 637.842163,202.366440 637.443787,199.935638 
	C635.979492,191.000458 634.652100,182.019073 632.595032,173.213501 
	C631.311707,167.720490 633.213196,161.986526 630.086670,156.544861 
	C627.925110,152.782913 626.022400,151.236923 621.393494,152.848724 
	C620.990479,152.796631 620.587402,152.744537 619.899658,152.038300 
	C618.734253,151.476425 617.622559,150.630402 616.394775,150.398178 
	C607.612732,148.737045 598.820862,147.114304 589.994507,145.716522 
	C588.637756,145.501648 586.880737,146.198593 585.673706,147.013931 
	C583.595520,148.417648 582.011719,150.614029 579.855103,151.829910 
	C572.213257,156.138397 564.392700,160.128906 556.708679,164.364731 
	C555.707153,164.916794 554.590454,166.106140 554.406616,167.154572 
	C553.401794,172.883621 552.187561,178.508575 555.943542,184.069504 
	C558.293152,187.548325 559.412903,191.867004 561.025330,195.832901 
	C566.182434,208.517365 571.230408,221.246765 576.472961,233.895645 
	C582.597351,248.672119 588.965820,263.347504 595.073792,278.130615 
	C601.233398,293.038879 607.108582,308.064789 613.286133,322.965454 
	C618.337341,335.149078 623.791016,347.166260 628.810791,359.362366 
	C635.015625,374.438080 640.960938,389.620667 647.009521,404.760590 
	C650.904724,414.510773 654.614197,424.340973 658.789429,433.969421 
	C659.838745,436.389252 662.605652,440.024719 664.145325,439.819244 
	C666.551270,439.498230 671.166809,439.072845 670.261963,433.799500 
	C669.943176,431.941772 671.324768,429.717529 672.146057,427.750824 
	C678.550781,412.413055 685.140564,397.151245 691.416870,381.761444 
	C699.776550,361.263245 707.807922,340.631226 716.158264,320.129150 
	C725.795349,296.467712 735.635315,272.888885 745.369751,249.267014 
	C752.401855,232.202744 759.427002,215.135544 766.411560,198.051804 
	C769.160950,191.326920 771.896179,184.591797 774.396118,177.772690 
	C774.959045,176.237015 775.237976,173.734680 774.393921,172.707718 
	C771.879761,169.648697 769.032776,166.683060 765.792664,164.435104 
	C756.625061,158.074783 747.196655,152.090485 737.660400,145.819565 
	C728.170837,148.849152 718.356262,151.747620 708.729675,155.174301 
	C705.005615,156.499908 700.330444,157.080399 698.648621,161.598648 
	C697.632446,164.328644 697.117310,167.265747 696.571838,170.146683 
	C694.455200,181.325714 692.357483,192.509293 690.412598,203.718903 
	C690.120667,205.401520 690.679565,207.231781 690.806213,209.745636 
	C690.696472,210.742950 690.586731,211.740250 689.880737,213.064941 
	C688.389099,219.245743 686.546753,225.366791 685.480774,231.620148 
	C683.432800,243.633881 681.973633,255.747391 679.973694,267.770172 
	C678.923523,274.083282 676.925476,280.242004 675.938049,286.561462 
	C674.859253,293.465454 674.453430,300.474640 673.705933,308.152771 
	C673.615417,309.104492 673.524963,310.056213 672.784119,311.332520 
	C671.156006,315.241333 669.485229,319.133057 667.910706,323.063324 
	C665.970093,327.907166 664.109497,332.783051 662.214294,337.645081 
	C661.717529,337.611633 661.220764,337.578156 660.723999,337.544708 
	C660.065735,335.608704 659.089722,333.717499 658.809265,331.728210 
	C657.995422,325.956451 657.591309,320.125854 656.732666,314.362122 
	C656.492493,312.749939 655.235168,311.289337 654.342834,309.070679 
M876.298035,378.498840 
	C876.293030,385.492920 876.439270,392.491882 876.214722,399.478912 
	C876.113525,402.628540 877.426025,403.678802 880.262085,403.666138 
	C884.425171,403.647552 888.606445,403.430542 892.746216,403.744080 
	C896.670776,404.041290 897.951294,402.735321 897.893860,398.731720 
	C897.681152,383.913940 897.802979,369.091339 897.801270,354.270569 
	C897.799744,340.310272 897.802124,340.442078 911.917908,340.316650 
	C915.788147,340.282257 917.782959,341.770874 919.786926,344.967590 
	C930.268494,361.688507 941.471802,377.971680 951.521790,394.941498 
	C955.798523,402.163055 960.814575,404.734253 968.743713,403.772736 
	C973.210815,403.230988 977.797363,403.675079 983.347656,403.675079 
	C967.110107,379.746643 951.793274,357.174988 936.311768,334.360565 
	C937.860840,333.448975 938.691284,332.946381 939.534424,332.466125 
	C953.299561,324.626099 962.786255,313.788818 963.848267,297.232025 
	C965.299927,274.601685 955.773987,260.947693 932.269958,258.348938 
	C914.989441,256.438232 897.356995,257.718567 879.881531,257.554962 
	C876.212036,257.520630 876.248047,259.856445 876.252197,262.596039 
	C876.310669,300.896851 876.296021,339.197754 876.298035,378.498840 
M833.929138,334.463257 
	C834.019714,331.640686 833.890808,328.789764 834.251343,326.002106 
	C834.817322,321.625153 832.814270,320.677368 828.844299,320.733826 
	C815.684387,320.921082 802.518921,320.699493 789.358337,320.861908 
	C785.339539,320.911499 783.735535,319.673431 783.810181,315.436066 
	C784.030151,302.943817 784.053894,290.441833 783.798462,277.950928 
	C783.708862,273.569458 785.140930,272.137177 789.482117,272.191620 
	C804.641663,272.381683 819.805115,272.264221 834.967041,272.262787 
	C843.988647,272.261963 843.770203,272.253967 844.072021,263.262390 
	C844.214172,259.029510 843.228760,257.393616 838.647278,257.432526 
	C814.989685,257.633270 791.329041,257.594360 767.670532,257.457397 
	C763.439087,257.432922 761.968262,258.643707 761.984985,263.136688 
	C762.151917,307.955505 762.164124,352.775482 761.975647,397.594116 
	C761.955261,402.447021 763.350952,403.830383 768.106750,403.775818 
	C787.598145,403.552185 807.093567,403.682983 826.587524,403.682404 
	C832.419067,403.682251 838.251221,403.624451 844.081848,403.698853 
	C847.377502,403.740906 849.169434,402.614136 848.593262,398.987640 
	C848.412415,397.849487 848.550659,396.659393 848.556030,395.493134 
	C848.585999,388.938904 848.587341,388.922699 841.905151,388.918854 
	C824.410583,388.908783 806.914856,388.803741 789.422302,388.991364 
	C785.058899,389.038147 783.686829,387.631439 783.790344,383.247192 
	C784.069458,371.424133 783.885193,359.590118 783.885315,347.760468 
	C783.885376,335.549652 783.886108,335.617859 795.919006,335.530792 
	C808.394165,335.440552 820.868164,335.199921 833.929138,334.463257 
M1040.152710,299.499146 
	C1040.152588,306.498199 1040.152466,313.497284 1040.152222,320.496338 
	C1040.151367,346.492676 1040.235229,372.489594 1040.059326,398.484741 
	C1040.032471,402.456757 1041.217163,403.942291 1045.131470,403.717194 
	C1048.785522,403.507019 1052.489258,403.387054 1056.120239,403.744659 
	C1060.687622,404.194489 1061.666870,402.323029 1061.650024,398.034668 
	C1061.492920,358.040924 1061.629761,318.045929 1061.441162,278.052429 
	C1061.418701,273.279785 1063.058472,272.095612 1067.483032,272.177063 
	C1079.643799,272.400970 1091.811523,272.265533 1103.976440,272.249512 
	C1114.322144,272.235840 1112.306519,272.964996 1112.775146,263.392548 
	C1113.002808,258.741577 1111.641357,257.408966 1106.956299,257.432648 
	C1070.795532,257.615631 1034.633667,257.528717 998.472046,257.536194 
	C987.190674,257.538544 989.437683,256.974670 988.945862,266.767670 
	C988.715088,271.362854 990.450195,272.402863 994.670227,272.331390 
	C1007.498108,272.114197 1020.331909,272.248322 1033.163452,272.255280 
	C1040.137573,272.259094 1040.142822,272.267914 1040.150635,279.001770 
	C1040.158081,285.500854 1040.153198,291.999939 1040.152710,299.499146 
M1287.324097,382.500183 
	C1287.324097,375.843567 1287.324341,369.186981 1287.324341,362.530365 
	C1287.324341,329.413757 1287.223999,296.296478 1287.436768,263.181244 
	C1287.467163,258.460876 1286.066284,257.021729 1281.540405,257.451477 
	C1277.746704,257.811646 1273.891968,257.557159 1270.064819,257.527618 
	C1267.192139,257.505432 1266.023804,258.646698 1266.029541,261.736969 
	C1266.115234,307.667358 1266.115601,353.598083 1266.028931,399.528473 
	C1266.023071,402.664337 1267.286011,403.698181 1270.116333,403.679443 
	C1274.609375,403.649658 1279.106689,403.563202 1283.594360,403.721405 
	C1286.392578,403.820099 1287.454346,402.820129 1287.370728,399.973785 
	C1287.209473,394.486816 1287.323853,388.991760 1287.324097,382.500183 
M1418.467285,383.847473 
	C1407.595947,366.523529 1396.624756,349.260345 1386.001709,331.785553 
	C1384.891357,329.958832 1384.860474,326.261719 1385.986694,324.481049 
	C1395.176880,309.950928 1404.772705,295.677582 1414.221436,281.310699 
	C1419.175049,273.778778 1424.081177,266.215668 1429.774170,257.493988 
	C1426.156982,257.133545 1423.651733,256.962433 1421.169556,256.622681 
	C1411.644165,255.318924 1404.817383,257.717621 1399.622437,267.091949 
	C1392.344727,280.224060 1383.181396,292.311188 1374.823364,304.844452 
	C1374.056152,305.994995 1373.278442,307.138580 1372.505493,308.285339 
	C1371.336182,307.225311 1369.859131,306.360352 1369.044678,305.075348 
	C1359.867310,290.594086 1350.755249,276.070801 1341.715698,261.502930 
	C1339.617554,258.121613 1337.163330,256.195007 1332.842773,256.543793 
	C1327.875977,256.944763 1322.848755,256.529236 1317.854980,256.692719 
	C1315.841797,256.758636 1313.848022,257.419495 1311.097168,257.955383 
	C1317.094604,267.090485 1322.620239,275.264404 1327.894897,283.597229 
	C1335.933594,296.297180 1343.934204,309.025879 1351.654419,321.919983 
	C1353.963745,325.776764 1357.850098,329.591675 1353.869995,334.970886 
	C1349.661255,340.659180 1345.993652,346.748871 1342.109375,352.675995 
	C1336.498291,361.237976 1330.915405,369.818451 1325.300781,378.378113 
	C1319.996826,386.464142 1314.667480,394.533447 1308.534546,403.847290 
	C1316.970337,403.847290 1324.131226,403.950317 1331.281494,403.719604 
	C1332.197510,403.690063 1333.211670,402.024780 1333.919434,400.946014 
	C1341.243652,389.781494 1348.498413,378.571350 1355.806519,367.396179 
	C1359.560547,361.655762 1363.383057,355.960266 1368.308472,348.535187 
	C1369.810181,350.910858 1370.808472,352.429260 1371.746094,353.984161 
	C1374.986328,359.357269 1378.123779,364.794159 1381.449585,370.113403 
	C1388.189697,380.893097 1394.962280,391.654266 1401.918335,402.294342 
	C1402.669189,403.442841 1404.697388,404.294159 1406.164673,404.343628 
	C1412.655884,404.562500 1419.162109,404.566193 1425.656006,404.392059 
	C1429.925415,404.277588 1430.649170,402.688202 1428.345947,399.025787 
	C1425.261841,394.121307 1422.091064,389.271362 1418.467285,383.847473 
M791.693542,215.839798 
	C786.513794,225.357559 781.333984,234.875320 776.154236,244.393066 
	C776.469788,244.925308 776.785339,245.457550 777.100891,245.989792 
	C779.927063,245.258087 783.474365,245.362228 785.456299,243.652084 
	C794.756836,235.626892 803.697449,227.176422 812.565063,218.667786 
	C813.728516,217.551376 814.591003,214.941360 814.119751,213.506989 
	C812.160583,207.542709 809.725769,201.726379 807.280945,195.933609 
	C806.171265,193.304260 804.370361,192.535858 802.710144,195.543701 
	C799.109192,202.067627 795.638916,208.663620 791.693542,215.839798 
z"/>
<path fill="#E2E4D4" opacity="1.000000" stroke="none" 
	d="
M673.434448,311.007935 
	C673.524963,310.056213 673.615417,309.104492 674.025146,307.599976 
	C676.582153,295.358032 678.912231,283.685638 681.032471,271.975250 
	C683.276123,259.583008 685.404663,247.168304 687.419434,234.736816 
	C688.603638,227.430481 689.468506,220.072388 690.477051,212.737564 
	C690.586731,211.740250 690.696472,210.742950 691.141052,209.155029 
	C691.899841,207.305801 692.504822,206.077225 692.719299,204.783875 
	C694.623596,193.303757 696.675232,181.841202 698.222778,170.311646 
	C698.991028,164.588272 701.598572,160.218048 706.670776,158.218338 
	C715.299561,154.816467 724.221191,152.142151 733.079224,149.350769 
	C734.679260,148.846558 736.976868,148.566223 738.252747,149.338516 
	C748.274170,155.404663 758.145142,161.721176 768.018921,168.028656 
	C771.887207,170.499771 773.176270,175.108810 771.416199,179.421356 
	C768.036255,187.702820 764.642273,195.978592 761.291565,204.271896 
	C752.780029,225.338425 744.334473,246.431717 735.778015,267.479919 
	C726.347717,290.677582 716.820496,313.835876 707.340149,337.013184 
	C697.984253,359.886108 688.567810,382.734650 679.313171,405.648499 
	C675.472717,415.157349 672.033325,424.827698 668.269043,434.368378 
	C667.815979,435.516754 666.258118,437.235535 665.578613,437.080872 
	C664.119324,436.748779 662.233704,435.651947 661.683472,434.369995 
	C655.995850,421.118042 650.515991,407.776428 645.024353,394.440857 
	C637.195312,375.429138 629.432312,356.390167 621.590515,337.383728 
	C612.350281,314.987732 603.048157,292.617279 593.787354,270.229767 
	C584.345581,247.404541 574.373474,224.776566 565.739929,201.649231 
	C561.903259,191.371674 552.872498,182.111679 557.169861,169.610550 
	C557.763916,167.882294 558.733521,165.770111 560.169556,164.930084 
	C567.758484,160.490799 576.208496,157.246719 583.065491,151.921432 
	C588.447998,147.741211 593.035095,148.425568 598.647400,149.532059 
	C605.757690,150.933914 612.999390,151.669495 620.184387,152.692429 
	C620.587402,152.744537 620.990479,152.796631 621.924316,153.137146 
	C627.433350,154.286575 629.052429,158.251495 629.674072,162.309937 
	C630.844360,169.950684 631.053467,177.741562 632.287537,185.368835 
	C633.518005,192.973877 635.515259,200.454880 637.176270,207.990265 
	C637.201477,208.393539 637.226685,208.796799 637.130615,209.920517 
	C638.897034,222.433319 640.726074,234.235458 642.688599,246.015350 
	C644.761780,258.459076 646.847412,270.902893 649.148438,283.305664 
	C650.620117,291.238647 652.492004,299.097351 654.184448,306.989349 
	C654.237244,307.683136 654.290039,308.376892 654.220093,309.826233 
	C655.709290,319.976837 657.266418,329.382080 659.007690,338.753052 
	C659.208679,339.834686 660.433655,340.726074 661.183899,341.705627 
	C662.170898,340.797058 663.576660,340.071991 664.069885,338.946960 
	C665.864746,334.852631 667.520142,330.678955 668.916504,326.432770 
	C670.589294,321.346008 671.942749,316.154236 673.434448,311.007935 
M640.029175,283.879517 
	C641.035217,286.690460 642.041321,289.501434 643.047363,292.312378 
	C643.627747,292.107666 644.208069,291.902954 644.788391,291.698242 
	C643.843201,288.804382 642.897949,285.910522 641.969727,282.144531 
	C641.180847,273.971832 640.655457,265.762695 639.532471,257.636139 
	C638.292297,248.661362 636.496094,239.763687 634.958435,230.829590 
	C634.039490,225.490616 633.270203,220.122879 632.220459,214.810181 
	C630.889282,208.072540 629.129272,201.414825 627.945190,194.654160 
	C626.668945,187.367188 625.981079,179.977539 624.723633,172.686600 
	C624.423096,170.944107 622.880981,169.415741 621.747192,167.516388 
	C617.411865,169.722153 613.771545,172.186386 609.753967,173.468155 
	C604.359314,175.189240 604.357971,179.152313 605.405945,182.988617 
	C607.602783,191.030426 610.414429,198.907974 613.078918,206.817505 
	C617.681213,220.479965 622.396118,234.104477 626.997131,247.767365 
	C628.921936,253.483261 630.471619,259.332306 632.563110,264.983398 
	C634.833130,271.117004 637.535095,277.090729 640.029175,283.879517 
M690.410828,288.807007 
	C685.656372,301.207947 680.933838,313.621216 676.136597,326.005554 
	C672.814453,334.582031 669.615601,343.221222 665.821350,351.587311 
	C665.050781,353.286285 661.944153,354.392975 659.747803,354.751373 
	C658.851318,354.897644 657.044983,352.505432 656.452942,350.961304 
	C653.687927,343.748596 651.211487,336.425476 648.614624,329.148010 
	C644.861633,318.630493 640.949951,308.167053 637.369019,297.591461 
	C632.928223,284.476471 628.874573,271.230408 624.434692,258.115051 
	C619.952148,244.873779 615.083435,231.763168 610.605286,218.520447 
	C606.922241,207.628998 603.632324,196.605118 600.024353,185.687469 
	C598.709045,181.707306 596.475464,179.010269 591.437012,179.556168 
	C588.568237,179.866974 585.560486,178.589310 582.588745,178.319931 
	C576.442688,177.762772 570.278809,177.401505 562.656799,176.854523 
	C579.937134,219.061218 596.203918,259.770721 613.249878,300.151367 
	C630.306091,340.556335 646.359741,381.399902 663.898254,421.600922 
	C664.529724,421.491058 665.161194,421.381226 665.792664,421.271393 
	C698.754272,340.402405 731.715820,259.533386 765.156738,177.488266 
	C761.449646,177.705048 759.332703,177.617355 757.298401,177.985977 
	C750.150085,179.281296 743.073669,181.455627 735.885193,181.889160 
	C730.498535,182.214005 728.783508,185.009903 727.397949,189.099838 
	C726.922119,190.504623 726.484253,191.923477 725.966797,193.312744 
	C721.550842,205.168777 717.137756,217.025970 712.689880,228.870056 
	C708.236877,240.727615 703.715393,252.559509 699.280212,264.423706 
	C696.343201,272.280273 693.505493,280.173920 690.410828,288.807007 
M706.413086,227.213120 
	C708.581238,221.897873 710.858337,216.623901 712.892334,211.257797 
	C716.019043,203.008881 719.276672,194.787186 721.836975,186.358994 
	C722.658997,183.653015 722.588867,179.218796 720.932983,177.527206 
	C717.699280,174.223938 713.148804,172.125931 708.931580,169.937469 
	C708.051331,169.480667 705.249695,170.526001 705.034973,171.332260 
	C703.176453,178.310379 701.565186,185.363998 700.159790,192.450562 
	C698.594177,200.344894 697.292786,208.292374 695.929443,216.225830 
	C694.647522,223.684723 693.516541,231.170303 692.165588,238.616302 
	C691.084473,244.575317 690.435913,250.732529 688.396057,256.367645 
	C685.840820,263.426605 685.827209,270.321045 686.938110,277.628204 
	C688.482910,276.402069 689.721497,275.078918 690.402893,273.513306 
	C692.329102,269.087372 694.234802,264.631531 695.762817,260.058563 
	C697.720337,254.200348 699.203064,248.185089 701.075195,242.296265 
	C702.608704,237.472580 704.412903,232.734924 706.413086,227.213120 
M574.893311,164.502182 
	C572.584106,165.799591 570.274841,167.096985 567.965637,168.394394 
	C575.705383,170.380554 583.090942,171.311432 590.489868,172.120972 
	C592.963379,172.391617 595.864502,173.218460 597.891357,172.297318 
	C604.874756,169.123474 611.558228,165.289627 619.224731,161.249344 
	C618.027466,160.615402 617.608765,160.258224 617.137573,160.164429 
	C608.986511,158.541946 600.838318,156.900681 592.661133,155.420029 
	C591.648254,155.236618 590.364502,155.744431 589.393005,156.274307 
	C584.731995,158.816589 580.135315,161.476578 574.893311,164.502182 
M745.343079,161.183182 
	C740.200623,156.550308 734.803711,154.480896 727.910950,157.918915 
	C723.169373,160.283890 717.924133,161.639099 711.704895,163.877167 
	C717.545654,167.606125 722.082703,170.642090 726.774292,173.416733 
	C728.262024,174.296585 730.230835,175.070740 731.861206,174.880341 
	C739.292786,174.012512 746.688660,172.823471 754.078125,171.630585 
	C754.914307,171.495605 756.333801,170.475693 756.262085,170.097260 
	C756.081238,169.141937 755.381470,168.074554 754.573486,167.486328 
	C751.756592,165.435547 748.805725,163.568832 745.343079,161.183182 
z"/>
<path fill="#F2F2F2" opacity="1.000000" stroke="none" 
	d="
M876.298645,377.998749 
	C876.296021,339.197754 876.310669,300.896851 876.252197,262.596039 
	C876.248047,259.856445 876.212036,257.520630 879.881531,257.554962 
	C897.356995,257.718567 914.989441,256.438232 932.269958,258.348938 
	C955.773987,260.947693 965.299927,274.601685 963.848267,297.232025 
	C962.786255,313.788818 953.299561,324.626099 939.534424,332.466125 
	C938.691284,332.946381 937.860840,333.448975 936.311768,334.360565 
	C951.793274,357.174988 967.110107,379.746643 983.347656,403.675079 
	C977.797363,403.675079 973.210815,403.230988 968.743713,403.772736 
	C960.814575,404.734253 955.798523,402.163055 951.521790,394.941498 
	C941.471802,377.971680 930.268494,361.688507 919.786926,344.967590 
	C917.782959,341.770874 915.788147,340.282257 911.917908,340.316650 
	C897.802124,340.442078 897.799744,340.310272 897.801270,354.270569 
	C897.802979,369.091339 897.681152,383.913940 897.893860,398.731720 
	C897.951294,402.735321 896.670776,404.041290 892.746216,403.744080 
	C888.606445,403.430542 884.425171,403.647552 880.262085,403.666138 
	C877.426025,403.678802 876.113525,402.628540 876.214722,399.478912 
	C876.439270,392.491882 876.293030,385.492920 876.298645,377.998749 
M897.726318,288.504242 
	C897.726746,299.472198 897.822510,310.441467 897.667969,321.407227 
	C897.623291,324.578796 898.486023,326.117401 901.851624,325.727875 
	C907.407471,325.084808 913.014587,324.780212 918.526184,323.880341 
	C929.113159,322.151733 937.137268,316.560577 940.593506,306.232910 
	C943.893860,296.371033 943.554443,284.252930 934.430786,278.125336 
	C928.126587,273.891388 920.788574,272.501556 913.324036,272.274750 
	C908.393188,272.124969 901.681396,270.754272 899.006470,273.314606 
	C896.420776,275.789551 897.984985,282.600220 897.726318,288.504242 
z"/>
<path fill="#FAFAFA" opacity="1.000000" stroke="none" 
	d="
M1224.012939,299.013123 
	C1223.942383,299.758667 1223.871704,300.504242 1223.507324,301.570068 
	C1222.953003,302.102539 1222.817017,302.376434 1222.509766,302.880005 
	C1222.016724,304.068146 1221.819092,305.088257 1221.473389,306.436462 
	C1221.112793,307.701263 1220.900146,308.637970 1220.424561,309.744019 
	C1219.894287,310.636749 1219.627197,311.360199 1219.175171,312.373047 
	C1217.982544,314.422333 1216.974731,316.182190 1215.718994,318.019470 
	C1215.099854,318.742615 1214.728882,319.388336 1214.293945,320.177917 
	C1214.242798,320.563110 1214.363892,320.721680 1214.593262,320.797485 
	C1214.460938,320.945984 1214.328613,321.094452 1213.781616,321.397339 
	C1213.124390,321.957764 1212.881836,322.363739 1212.639160,322.769714 
	C1212.304565,323.106720 1211.969849,323.443726 1211.309326,323.682434 
	C1210.350464,324.066803 1209.717651,324.549530 1208.818604,325.238647 
	C1206.069458,327.120758 1203.586304,328.796448 1200.803955,330.405579 
	C1199.973389,330.875305 1199.441895,331.411652 1198.651367,332.036804 
	C1197.925537,332.410706 1197.458984,332.695770 1196.720459,333.025818 
	C1196.513672,333.866730 1196.578857,334.662659 1196.732666,335.785034 
	C1211.481934,358.032288 1226.142578,379.953094 1241.534180,402.966919 
	C1234.472046,402.966919 1229.013428,402.817230 1223.568237,403.023376 
	C1220.329224,403.145966 1218.410156,401.871307 1216.693237,399.181763 
	C1206.695190,383.519348 1196.442017,368.019501 1186.458374,352.347961 
	C1176.401978,336.562103 1181.385010,340.083252 1163.063843,339.471771 
	C1158.696777,339.326050 1157.259277,340.806915 1157.309937,345.193390 
	C1157.509888,362.516205 1157.398926,379.842743 1157.380249,397.167877 
	C1157.378296,398.937592 1157.221680,400.707123 1157.118774,402.852386 
	C1150.871704,402.852386 1145.079468,402.852386 1139.166748,402.407349 
	C1138.996216,399.968231 1138.902832,397.974213 1138.902222,395.980164 
	C1138.888428,350.221588 1138.884766,304.463013 1139.292480,258.632629 
	C1144.486450,258.453613 1149.266968,258.305908 1154.048462,258.247101 
	C1166.403931,258.095001 1178.760010,257.982208 1191.115845,257.853699 
	C1191.115845,257.853699 1191.115845,257.932922 1191.033569,258.216370 
	C1191.637695,258.737000 1192.324097,258.974213 1193.265869,259.282043 
	C1193.872803,259.339905 1194.224121,259.327118 1194.744141,259.554688 
	C1195.951416,259.904083 1196.990112,260.013153 1198.383423,260.193787 
	C1199.188477,260.143951 1199.638916,260.022491 1200.089355,259.901062 
	C1200.507568,259.978607 1200.925659,260.056152 1201.509888,260.398621 
	C1201.675903,260.663544 1201.923584,261.035492 1202.030273,261.322021 
	C1202.796631,261.863251 1203.456299,262.117950 1204.470703,262.527832 
	C1211.480591,264.600708 1215.895874,269.169403 1219.278320,275.226196 
	C1219.762573,276.122070 1220.279541,276.713593 1220.839233,277.642090 
	C1221.100830,278.617798 1221.319702,279.256531 1221.434326,280.221069 
	C1221.829346,281.450409 1222.328735,282.353912 1222.876953,283.489197 
	C1222.925537,283.721008 1223.213257,284.099030 1223.213257,284.099030 
	C1223.213257,284.099030 1223.681030,284.016022 1223.681030,284.016022 
	C1223.790283,285.380798 1223.899536,286.745544 1223.857666,288.948853 
	C1223.808594,292.862610 1223.910767,295.937866 1224.012939,299.013123 
M1158.177490,290.501068 
	C1158.177490,302.085846 1158.177490,313.670654 1158.177490,326.470642 
	C1165.426147,325.632294 1171.793091,325.032471 1178.118286,324.138458 
	C1196.130127,321.592834 1205.248535,307.189636 1202.424194,289.993561 
	C1201.402710,283.774750 1198.014771,279.493561 1192.452271,276.612946 
	C1182.396362,271.405304 1171.574341,272.013519 1160.817139,272.326752 
	C1159.908936,272.353241 1158.375732,274.355042 1158.302734,275.512726 
	C1158.010620,280.160095 1158.179321,284.836426 1158.177490,290.501068 
z"/>
<path fill="#F1F1F1" opacity="1.000000" stroke="none" 
	d="
M833.635925,334.744141 
	C820.868164,335.199921 808.394165,335.440552 795.919006,335.530792 
	C783.886108,335.617859 783.885376,335.549652 783.885315,347.760468 
	C783.885193,359.590118 784.069458,371.424133 783.790344,383.247192 
	C783.686829,387.631439 785.058899,389.038147 789.422302,388.991364 
	C806.914856,388.803741 824.410583,388.908783 841.905151,388.918854 
	C848.587341,388.922699 848.585999,388.938904 848.556030,395.493134 
	C848.550659,396.659393 848.412415,397.849487 848.593262,398.987640 
	C849.169434,402.614136 847.377502,403.740906 844.081848,403.698853 
	C838.251221,403.624451 832.419067,403.682251 826.587524,403.682404 
	C807.093567,403.682983 787.598145,403.552185 768.106750,403.775818 
	C763.350952,403.830383 761.955261,402.447021 761.975647,397.594116 
	C762.164124,352.775482 762.151917,307.955505 761.984985,263.136688 
	C761.968262,258.643707 763.439087,257.432922 767.670532,257.457397 
	C791.329041,257.594360 814.989685,257.633270 838.647278,257.432526 
	C843.228760,257.393616 844.214172,259.029510 844.072021,263.262390 
	C843.770203,272.253967 843.988647,272.261963 834.967041,272.262787 
	C819.805115,272.264221 804.641663,272.381683 789.482117,272.191620 
	C785.140930,272.137177 783.708862,273.569458 783.798462,277.950928 
	C784.053894,290.441833 784.030151,302.943817 783.810181,315.436066 
	C783.735535,319.673431 785.339539,320.911499 789.358337,320.861908 
	C802.518921,320.699493 815.684387,320.921082 828.844299,320.733826 
	C832.814270,320.677368 834.817322,321.625153 834.251343,326.002106 
	C833.890808,328.789764 834.019714,331.640686 833.635925,334.744141 
z"/>
<path fill="#F3F3F3" opacity="1.000000" stroke="none" 
	d="
M1040.153320,298.999084 
	C1040.153198,291.999939 1040.158081,285.500854 1040.150635,279.001770 
	C1040.142822,272.267914 1040.137573,272.259094 1033.163452,272.255280 
	C1020.331909,272.248322 1007.498108,272.114197 994.670227,272.331390 
	C990.450195,272.402863 988.715088,271.362854 988.945862,266.767670 
	C989.437683,256.974670 987.190674,257.538544 998.472046,257.536194 
	C1034.633667,257.528717 1070.795532,257.615631 1106.956299,257.432648 
	C1111.641357,257.408966 1113.002808,258.741577 1112.775146,263.392548 
	C1112.306519,272.964996 1114.322144,272.235840 1103.976440,272.249512 
	C1091.811523,272.265533 1079.643799,272.400970 1067.483032,272.177063 
	C1063.058472,272.095612 1061.418701,273.279785 1061.441162,278.052429 
	C1061.629761,318.045929 1061.492920,358.040924 1061.650024,398.034668 
	C1061.666870,402.323029 1060.687622,404.194489 1056.120239,403.744659 
	C1052.489258,403.387054 1048.785522,403.507019 1045.131470,403.717194 
	C1041.217163,403.942291 1040.032471,402.456757 1040.059326,398.484741 
	C1040.235229,372.489594 1040.151367,346.492676 1040.152222,320.496338 
	C1040.152466,313.497284 1040.152588,306.498199 1040.153320,298.999084 
z"/>
<path fill="#F1F1F1" opacity="1.000000" stroke="none" 
	d="
M1287.323975,383.000122 
	C1287.323853,388.991760 1287.209473,394.486816 1287.370728,399.973785 
	C1287.454346,402.820129 1286.392578,403.820099 1283.594360,403.721405 
	C1279.106689,403.563202 1274.609375,403.649658 1270.116333,403.679443 
	C1267.286011,403.698181 1266.023071,402.664337 1266.028931,399.528473 
	C1266.115601,353.598083 1266.115234,307.667358 1266.029541,261.736969 
	C1266.023804,258.646698 1267.192139,257.505432 1270.064819,257.527618 
	C1273.891968,257.557159 1277.746704,257.811646 1281.540405,257.451477 
	C1286.066284,257.021729 1287.467163,258.460876 1287.436768,263.181244 
	C1287.223999,296.296478 1287.324341,329.413757 1287.324341,362.530365 
	C1287.324341,369.186981 1287.324097,375.843567 1287.323975,383.000122 
z"/>
<path fill="#727272" opacity="1.000000" stroke="none" 
	d="
M1418.712402,384.122742 
	C1422.091064,389.271362 1425.261841,394.121307 1428.345947,399.025787 
	C1430.649170,402.688202 1429.925415,404.277588 1425.656006,404.392059 
	C1419.162109,404.566193 1412.655884,404.562500 1406.164673,404.343628 
	C1404.697388,404.294159 1402.669189,403.442841 1401.918335,402.294342 
	C1394.962280,391.654266 1388.189697,380.893097 1381.449585,370.113403 
	C1378.123779,364.794159 1374.986328,359.357269 1371.746094,353.984161 
	C1370.808472,352.429260 1369.810181,350.910858 1368.308472,348.535187 
	C1363.383057,355.960266 1359.560547,361.655762 1355.806519,367.396179 
	C1348.498413,378.571350 1341.243652,389.781494 1333.919434,400.946014 
	C1333.211670,402.024780 1332.197510,403.690063 1331.281494,403.719604 
	C1324.131226,403.950317 1316.970337,403.847290 1308.534546,403.847290 
	C1314.667480,394.533447 1319.996826,386.464142 1325.300781,378.378113 
	C1330.915405,369.818451 1336.498291,361.237976 1342.109375,352.675995 
	C1345.993652,346.748871 1349.661255,340.659180 1353.869995,334.970886 
	C1357.850098,329.591675 1353.963745,325.776764 1351.654419,321.919983 
	C1343.934204,309.025879 1335.933594,296.297180 1327.894897,283.597229 
	C1322.620239,275.264404 1317.094604,267.090485 1311.097168,257.955383 
	C1313.848022,257.419495 1315.841797,256.758636 1317.854980,256.692719 
	C1322.848755,256.529236 1327.875977,256.944763 1332.842773,256.543793 
	C1337.163330,256.195007 1339.617554,258.121613 1341.715698,261.502930 
	C1350.755249,276.070801 1359.867310,290.594086 1369.044678,305.075348 
	C1369.859131,306.360352 1371.336182,307.225311 1372.505615,308.285370 
	C1373.278442,307.138580 1374.056152,305.994995 1374.823364,304.844452 
	C1383.181396,292.311188 1392.344727,280.224060 1399.622437,267.091949 
	C1404.817383,257.717621 1411.644165,255.318924 1421.169556,256.622681 
	C1423.651733,256.962433 1426.156982,257.133545 1429.774170,257.493988 
	C1424.081177,266.215668 1419.175049,273.778778 1414.221436,281.310699 
	C1404.772705,295.677582 1395.176880,309.950928 1385.986694,324.481049 
	C1384.860474,326.261719 1384.891357,329.958832 1386.001709,331.785553 
	C1396.624756,349.260345 1407.595947,366.523529 1418.712402,384.122742 
M1406.227051,403.020844 
	C1413.103027,403.020844 1419.979004,403.020844 1427.543091,403.020844 
	C1426.374390,400.883759 1425.806763,399.702484 1425.113770,398.599854 
	C1411.329102,376.661621 1397.586548,354.696411 1383.672119,332.840668 
	C1381.598999,329.584564 1381.385376,327.015350 1383.564453,323.746155 
	C1394.432495,307.441010 1405.147217,291.033447 1415.886719,274.642914 
	C1419.209595,269.571503 1422.441284,264.440308 1426.478027,258.146454 
	C1421.748413,258.146454 1418.297363,258.462646 1414.928467,258.071167 
	C1410.069946,257.506531 1407.333496,259.770935 1404.847046,263.624664 
	C1395.119141,278.700958 1385.184692,293.644623 1375.232422,308.574585 
	C1374.317017,309.947876 1372.729980,310.873383 1371.242920,312.195068 
	C1369.737183,309.979523 1368.580322,308.371368 1367.519775,306.702057 
	C1357.900513,291.561493 1348.307861,276.403931 1338.669189,261.275696 
	C1337.989990,260.209564 1337.035156,258.530365 1336.162720,258.501068 
	C1329.315186,258.270599 1322.456543,258.373260 1314.702271,258.373260 
	C1316.198486,261.003967 1317.034546,262.601898 1317.986328,264.127686 
	C1330.743652,284.580017 1343.417603,305.085846 1356.381226,325.406738 
	C1358.648560,328.960968 1358.514893,331.492554 1356.293701,334.848053 
	C1344.829590,352.166656 1333.535278,369.597839 1322.210571,387.008423 
	C1318.940796,392.035370 1315.765747,397.124023 1311.984741,403.068909 
	C1316.926270,403.068909 1320.582520,402.830261 1324.193359,403.133362 
	C1328.116089,403.462646 1330.502686,402.068726 1332.664551,398.691406 
	C1343.054932,382.459076 1353.695190,366.385956 1364.345703,350.321960 
	C1365.421509,348.699524 1367.161865,347.517792 1368.835449,345.897522 
	C1373.894287,353.871887 1378.386353,361.034546 1382.960449,368.144409 
	C1390.411743,379.726227 1397.916382,391.273621 1406.227051,403.020844 
z"/>
<path fill="#67675F" opacity="1.000000" stroke="none" 
	d="
M620.041992,152.365356 
	C612.999390,151.669495 605.757690,150.933914 598.647400,149.532059 
	C593.035095,148.425568 588.447998,147.741211 583.065491,151.921432 
	C576.208496,157.246719 567.758484,160.490799 560.169556,164.930084 
	C558.733521,165.770111 557.763916,167.882294 557.169861,169.610550 
	C552.872498,182.111679 561.903259,191.371674 565.739929,201.649231 
	C574.373474,224.776566 584.345581,247.404541 593.787354,270.229767 
	C603.048157,292.617279 612.350281,314.987732 621.590515,337.383728 
	C629.432312,356.390167 637.195312,375.429138 645.024353,394.440857 
	C650.515991,407.776428 655.995850,421.118042 661.683472,434.369995 
	C662.233704,435.651947 664.119324,436.748779 665.578613,437.080872 
	C666.258118,437.235535 667.815979,435.516754 668.269043,434.368378 
	C672.033325,424.827698 675.472717,415.157349 679.313171,405.648499 
	C688.567810,382.734650 697.984253,359.886108 707.340149,337.013184 
	C716.820496,313.835876 726.347717,290.677582 735.778015,267.479919 
	C744.334473,246.431717 752.780029,225.338425 761.291565,204.271896 
	C764.642273,195.978592 768.036255,187.702820 771.416199,179.421356 
	C773.176270,175.108810 771.887207,170.499771 768.018921,168.028656 
	C758.145142,161.721176 748.274170,155.404663 738.252747,149.338516 
	C736.976868,148.566223 734.679260,148.846558 733.079224,149.350769 
	C724.221191,152.142151 715.299561,154.816467 706.670776,158.218338 
	C701.598572,160.218048 698.991028,164.588272 698.222778,170.311646 
	C696.675232,181.841202 694.623596,193.303757 692.719299,204.783875 
	C692.504822,206.077225 691.899841,207.305801 691.160400,208.779083 
	C690.679565,207.231781 690.120667,205.401520 690.412598,203.718903 
	C692.357483,192.509293 694.455200,181.325714 696.571838,170.146683 
	C697.117310,167.265747 697.632446,164.328644 698.648621,161.598648 
	C700.330444,157.080399 705.005615,156.499908 708.729675,155.174301 
	C718.356262,151.747620 728.170837,148.849152 737.660400,145.819565 
	C747.196655,152.090485 756.625061,158.074783 765.792664,164.435104 
	C769.032776,166.683060 771.879761,169.648697 774.393921,172.707718 
	C775.237976,173.734680 774.959045,176.237015 774.396118,177.772690 
	C771.896179,184.591797 769.160950,191.326920 766.411560,198.051804 
	C759.427002,215.135544 752.401855,232.202744 745.369751,249.267014 
	C735.635315,272.888885 725.795349,296.467712 716.158264,320.129150 
	C707.807922,340.631226 699.776550,361.263245 691.416870,381.761444 
	C685.140564,397.151245 678.550781,412.413055 672.146057,427.750824 
	C671.324768,429.717529 669.943176,431.941772 670.261963,433.799500 
	C671.166809,439.072845 666.551270,439.498230 664.145325,439.819244 
	C662.605652,440.024719 659.838745,436.389252 658.789429,433.969421 
	C654.614197,424.340973 650.904724,414.510773 647.009521,404.760590 
	C640.960938,389.620667 635.015625,374.438080 628.810791,359.362366 
	C623.791016,347.166260 618.337341,335.149078 613.286133,322.965454 
	C607.108582,308.064789 601.233398,293.038879 595.073792,278.130615 
	C588.965820,263.347504 582.597351,248.672119 576.472961,233.895645 
	C571.230408,221.246765 566.182434,208.517365 561.025330,195.832901 
	C559.412903,191.867004 558.293152,187.548325 555.943542,184.069504 
	C552.187561,178.508575 553.401794,172.883621 554.406616,167.154572 
	C554.590454,166.106140 555.707153,164.916794 556.708679,164.364731 
	C564.392700,160.128906 572.213257,156.138397 579.855103,151.829910 
	C582.011719,150.614029 583.595520,148.417648 585.673706,147.013931 
	C586.880737,146.198593 588.637756,145.501648 589.994507,145.716522 
	C598.820862,147.114304 607.612732,148.737045 616.394775,150.398178 
	C617.622559,150.630402 618.734253,151.476425 620.041992,152.365356 
z"/>
<path fill="#878787" opacity="1.000000" stroke="none" 
	d="
M1139.287109,402.852386 
	C1145.079468,402.852386 1150.871704,402.852386 1157.118774,402.852386 
	C1157.221680,400.707123 1157.378296,398.937592 1157.380249,397.167877 
	C1157.398926,379.842743 1157.509888,362.516205 1157.309937,345.193390 
	C1157.259277,340.806915 1158.696777,339.326050 1163.063843,339.471771 
	C1181.385010,340.083252 1176.401978,336.562103 1186.458374,352.347961 
	C1196.442017,368.019501 1206.695190,383.519348 1216.693237,399.181763 
	C1218.410156,401.871307 1220.329224,403.145966 1223.568237,403.023376 
	C1229.013428,402.817230 1234.472046,402.966919 1241.534180,402.966919 
	C1226.142578,379.953094 1211.481934,358.032288 1196.822998,335.375427 
	C1196.880493,334.086548 1196.936401,333.533691 1196.992432,332.980835 
	C1197.458984,332.695770 1197.925537,332.410706 1198.947754,332.036072 
	C1200.036499,331.455048 1200.569824,330.963623 1201.103271,330.472168 
	C1203.586304,328.796448 1206.069458,327.120758 1209.142090,325.232849 
	C1210.163086,325.016327 1210.594604,325.011963 1211.026001,325.007599 
	C1207.161377,328.249725 1203.296753,331.491821 1198.757446,335.299835 
	C1202.482178,340.888306 1206.618286,347.191681 1210.852905,353.428101 
	C1221.159058,368.606415 1231.525757,383.743805 1241.816040,398.932800 
	C1242.603271,400.094788 1242.981934,401.533569 1243.550537,402.843658 
	C1242.066528,403.324799 1240.593506,404.177368 1239.096680,404.221191 
	C1233.435913,404.386841 1227.759644,404.113739 1222.104370,404.357422 
	C1218.701660,404.504028 1216.524048,403.271454 1214.738159,400.451965 
	C1205.616455,386.052246 1196.385620,371.721680 1187.197510,357.364105 
	C1185.235840,354.298737 1183.380981,351.160461 1181.312988,348.169128 
	C1179.637573,345.745575 1178.055908,341.973602 1175.833740,341.476410 
	C1171.069946,340.410522 1165.902100,340.856995 1160.944336,341.249542 
	C1160.142212,341.313080 1158.993896,344.279083 1158.980591,345.911438 
	C1158.838135,363.407349 1158.749878,380.906769 1158.988770,398.400574 
	C1159.050659,402.930756 1157.914795,404.812683 1153.138184,404.375793 
	C1148.841064,403.982788 1144.479492,404.225159 1140.148193,404.299561 
	C1136.957886,404.354340 1135.749512,402.952698 1135.790527,399.746796 
	C1135.918213,389.750122 1135.835449,379.750763 1135.835327,369.752441 
	C1135.835205,334.091766 1135.851074,298.431091 1135.807617,262.770477 
	C1135.803955,259.746552 1135.687500,256.873779 1139.855713,256.894531 
	C1156.833130,256.979034 1173.810669,257.091400 1190.951904,257.523621 
	C1178.760010,257.982208 1166.403931,258.095001 1154.048462,258.247101 
	C1149.266968,258.305908 1144.486450,258.453613 1139.005127,258.554321 
	C1137.904785,259.898010 1137.157227,261.247711 1137.155396,262.598419 
	C1137.094849,307.885773 1137.085083,353.173248 1137.197510,398.460388 
	C1137.201050,399.926086 1138.560059,401.388458 1139.287109,402.852386 
z"/>
<path fill="#52D0CB" opacity="1.000000" stroke="none" 
	d="
M791.904358,215.534973 
	C795.638916,208.663620 799.109192,202.067627 802.710144,195.543701 
	C804.370361,192.535858 806.171265,193.304260 807.280945,195.933609 
	C809.725769,201.726379 812.160583,207.542709 814.119751,213.506989 
	C814.591003,214.941360 813.728516,217.551376 812.565063,218.667786 
	C803.697449,227.176422 794.756836,235.626892 785.456299,243.652084 
	C783.474365,245.362228 779.927063,245.258087 777.100891,245.989792 
	C776.785339,245.457550 776.469788,244.925308 776.154236,244.393066 
	C781.333984,234.875320 786.513794,225.357559 791.904358,215.534973 
z"/>
<path fill="#67675F" opacity="1.000000" stroke="none" 
	d="
M654.436157,306.682037 
	C652.492004,299.097351 650.620117,291.238647 649.148438,283.305664 
	C646.847412,270.902893 644.761780,258.459076 642.688599,246.015350 
	C640.726074,234.235458 638.897034,222.433319 637.176208,210.220245 
	C638.104614,210.998245 639.330261,212.117722 639.550659,213.408798 
	C640.769104,220.546295 641.601135,227.750168 642.839905,234.883667 
	C644.077515,242.010422 645.712158,249.067352 647.033264,256.180786 
	C648.054443,261.679291 648.809143,267.226807 649.773621,272.736511 
	C651.303284,281.474548 652.987427,290.186340 654.432434,298.937958 
	C654.833008,301.364807 654.619507,303.893005 654.436157,306.682037 
z"/>
<path fill="#67675F" opacity="1.000000" stroke="none" 
	d="
M690.178894,212.901245 
	C689.468506,220.072388 688.603638,227.430481 687.419434,234.736816 
	C685.404663,247.168304 683.276123,259.583008 681.032471,271.975250 
	C678.912231,283.685638 676.582153,295.358032 674.049316,307.242554 
	C674.453430,300.474640 674.859253,293.465454 675.938049,286.561462 
	C676.925476,280.242004 678.923523,274.083282 679.973694,267.770172 
	C681.973633,255.747391 683.432800,243.633881 685.480774,231.620148 
	C686.546753,225.366791 688.389099,219.245743 690.178894,212.901245 
z"/>
<path fill="#67675F" opacity="1.000000" stroke="none" 
	d="
M673.109253,311.170227 
	C671.942749,316.154236 670.589294,321.346008 668.916504,326.432770 
	C667.520142,330.678955 665.864746,334.852631 664.069885,338.946960 
	C663.576660,340.071991 662.170898,340.797058 661.183899,341.705627 
	C660.433655,340.726074 659.208679,339.834686 659.007690,338.753052 
	C657.266418,329.382080 655.709290,319.976837 654.270874,310.170471 
	C655.235168,311.289337 656.492493,312.749939 656.732666,314.362122 
	C657.591309,320.125854 657.995422,325.956451 658.809265,331.728210 
	C659.089722,333.717499 660.065735,335.608704 660.723999,337.544708 
	C661.220764,337.578156 661.717529,337.611633 662.214294,337.645081 
	C664.109497,332.783051 665.970093,327.907166 667.910706,323.063324 
	C669.485229,319.133057 671.156006,315.241333 673.109253,311.170227 
z"/>
<path fill="#67675F" opacity="1.000000" stroke="none" 
	d="
M637.433838,207.686783 
	C635.515259,200.454880 633.518005,192.973877 632.287537,185.368835 
	C631.053467,177.741562 630.844360,169.950684 629.674072,162.309937 
	C629.052429,158.251495 627.433350,154.286575 622.229126,153.147675 
	C626.022400,151.236923 627.925110,152.782913 630.086670,156.544861 
	C633.213196,161.986526 631.311707,167.720490 632.595032,173.213501 
	C634.652100,182.019073 635.979492,191.000458 637.443787,199.935638 
	C637.842163,202.366440 637.625671,204.897980 637.433838,207.686783 
z"/>
<path fill="#878787" opacity="1.000000" stroke="none" 
	d="
M1221.538574,279.895264 
	C1221.319702,279.256531 1221.100830,278.617798 1220.874023,277.318176 
	C1220.347656,276.078827 1219.829224,275.500336 1219.310913,274.921875 
	C1215.895874,269.169403 1211.480591,264.600708 1204.356201,262.277252 
	C1203.232422,261.592804 1202.578003,261.314148 1201.923584,261.035492 
	C1201.923584,261.035492 1201.675903,260.663544 1201.815796,260.489319 
	C1204.310669,260.931976 1206.922852,261.091614 1208.975708,262.245850 
	C1217.328613,266.942566 1223.156738,273.615448 1223.959473,283.804077 
	C1223.681030,284.016022 1223.213257,284.099030 1223.213257,284.099030 
	C1223.213257,284.099030 1222.925537,283.721008 1222.938232,283.148376 
	C1222.480225,281.682251 1222.009399,280.788757 1221.538574,279.895264 
z"/>
<path fill="#878787" opacity="1.000000" stroke="none" 
	d="
M1222.805420,302.712006 
	C1222.817017,302.376434 1222.953003,302.102539 1223.443848,301.939148 
	C1223.152222,304.810883 1223.182983,307.900787 1221.978882,310.394562 
	C1220.136963,314.209991 1217.443359,317.614319 1214.852295,320.995300 
	C1214.363892,320.721680 1214.242798,320.563110 1214.645386,320.068085 
	C1215.362793,319.190247 1215.664917,318.566132 1215.966919,317.942017 
	C1216.974731,316.182190 1217.982544,314.422333 1219.477051,312.265717 
	C1220.204956,311.104218 1220.446289,310.339447 1220.687500,309.574707 
	C1220.900146,308.637970 1221.112793,307.701263 1221.755371,306.286224 
	C1222.392090,304.775940 1222.598755,303.743988 1222.805420,302.712006 
z"/>
<path fill="#878787" opacity="1.000000" stroke="none" 
	d="
M1224.336670,298.915802 
	C1223.910767,295.937866 1223.808594,292.862610 1223.891357,289.358429 
	C1227.898560,292.011627 1226.242432,295.417236 1224.336670,298.915802 
z"/>
<path fill="#878787" opacity="1.000000" stroke="none" 
	d="
M1194.575562,259.314362 
	C1194.224121,259.327118 1193.872803,259.339905 1193.252686,258.926941 
	C1192.973267,258.264954 1192.962280,258.028687 1192.951294,257.792389 
	C1195.286743,258.271240 1197.622192,258.750092 1200.023438,259.565002 
	C1199.638916,260.022491 1199.188477,260.143951 1198.143677,259.897583 
	C1196.558105,259.457947 1195.566772,259.386139 1194.575562,259.314362 
z"/>
<path fill="#878787" opacity="1.000000" stroke="none" 
	d="
M1212.856689,322.989960 
	C1212.881836,322.363739 1213.124390,321.957764 1213.562500,321.599731 
	C1213.530029,322.168518 1213.302002,322.689362 1212.856689,322.989960 
z"/>
<path fill="#A2A2A2" opacity="1.000000" stroke="none" 
	d="
M1211.173096,324.802307 
	C1210.594604,325.011963 1210.163086,325.016327 1209.408203,325.026489 
	C1209.717651,324.549530 1210.350464,324.066803 1211.012573,323.879761 
	C1211.134766,324.315948 1211.227539,324.456451 1211.173096,324.802307 
z"/>
<path fill="#A2A2A2" opacity="1.000000" stroke="none" 
	d="
M1192.624756,257.679749 
	C1192.962280,258.028687 1192.973267,258.264954 1192.997314,258.856323 
	C1192.324097,258.974213 1191.637695,258.737000 1190.994873,258.224915 
	C1191.458374,257.822418 1191.878296,257.694763 1192.624756,257.679749 
z"/>
<path fill="#080F0D" opacity="1.000000" stroke="none" 
	d="
M690.517090,288.428986 
	C693.505493,280.173920 696.343201,272.280273 699.280212,264.423706 
	C703.715393,252.559509 708.236877,240.727615 712.689880,228.870056 
	C717.137756,217.025970 721.550842,205.168777 725.966797,193.312744 
	C726.484253,191.923477 726.922119,190.504623 727.397949,189.099838 
	C728.783508,185.009903 730.498535,182.214005 735.885193,181.889160 
	C743.073669,181.455627 750.150085,179.281296 757.298401,177.985977 
	C759.332703,177.617355 761.449646,177.705048 765.156738,177.488266 
	C731.715820,259.533386 698.754272,340.402405 665.792664,421.271393 
	C665.161194,421.381226 664.529724,421.491058 663.898254,421.600922 
	C646.359741,381.399902 630.306091,340.556335 613.249878,300.151367 
	C596.203918,259.770721 579.937134,219.061218 562.656799,176.854523 
	C570.278809,177.401505 576.442688,177.762772 582.588745,178.319931 
	C585.560486,178.589310 588.568237,179.866974 591.437012,179.556168 
	C596.475464,179.010269 598.709045,181.707306 600.024353,185.687469 
	C603.632324,196.605118 606.922241,207.628998 610.605286,218.520447 
	C615.083435,231.763168 619.952148,244.873779 624.434692,258.115051 
	C628.874573,271.230408 632.928223,284.476471 637.369019,297.591461 
	C640.949951,308.167053 644.861633,318.630493 648.614624,329.148010 
	C651.211487,336.425476 653.687927,343.748596 656.452942,350.961304 
	C657.044983,352.505432 658.851318,354.897644 659.747803,354.751373 
	C661.944153,354.392975 665.050781,353.286285 665.821350,351.587311 
	C669.615601,343.221222 672.814453,334.582031 676.136597,326.005554 
	C680.933838,313.621216 685.656372,301.207947 690.517090,288.428986 
z"/>
<path fill="#67E5DE" opacity="1.000000" stroke="none" 
	d="
M640.048706,283.134155 
	C637.535095,277.090729 634.833130,271.117004 632.563110,264.983398 
	C630.471619,259.332306 628.921936,253.483261 626.997131,247.767365 
	C622.396118,234.104477 617.681213,220.479965 613.078918,206.817505 
	C610.414429,198.907974 607.602783,191.030426 605.405945,182.988617 
	C604.357971,179.152313 604.359314,175.189240 609.753967,173.468155 
	C613.771545,172.186386 617.411865,169.722153 621.747192,167.516388 
	C622.880981,169.415741 624.423096,170.944107 624.723633,172.686600 
	C625.981079,179.977539 626.668945,187.367188 627.945190,194.654160 
	C629.129272,201.414825 630.889282,208.072540 632.220459,214.810181 
	C633.270203,220.122879 634.039490,225.490616 634.958435,230.829590 
	C636.496094,239.763687 638.292297,248.661362 639.532471,257.636139 
	C640.655457,265.762695 641.180847,273.971832 641.643066,282.583557 
	C640.893860,283.059753 640.471313,283.096954 640.048706,283.134155 
z"/>
<path fill="#67E5DE" opacity="1.000000" stroke="none" 
	d="
M706.255066,227.586121 
	C704.412903,232.734924 702.608704,237.472580 701.075195,242.296265 
	C699.203064,248.185089 697.720337,254.200348 695.762817,260.058563 
	C694.234802,264.631531 692.329102,269.087372 690.402893,273.513306 
	C689.721497,275.078918 688.482910,276.402069 686.938110,277.628204 
	C685.827209,270.321045 685.840820,263.426605 688.396057,256.367645 
	C690.435913,250.732529 691.084473,244.575317 692.165588,238.616302 
	C693.516541,231.170303 694.647522,223.684723 695.929443,216.225830 
	C697.292786,208.292374 698.594177,200.344894 700.159790,192.450562 
	C701.565186,185.363998 703.176453,178.310379 705.034973,171.332260 
	C705.249695,170.526001 708.051331,169.480667 708.931580,169.937469 
	C713.148804,172.125931 717.699280,174.223938 720.932983,177.527206 
	C722.588867,179.218796 722.658997,183.653015 721.836975,186.358994 
	C719.276672,194.787186 716.019043,203.008881 712.892334,211.257797 
	C710.858337,216.623901 708.581238,221.897873 706.255066,227.586121 
z"/>
<path fill="#1D1D1B" opacity="1.000000" stroke="none" 
	d="
M575.204529,164.298462 
	C580.135315,161.476578 584.731995,158.816589 589.393005,156.274307 
	C590.364502,155.744431 591.648254,155.236618 592.661133,155.420029 
	C600.838318,156.900681 608.986511,158.541946 617.137573,160.164429 
	C617.608765,160.258224 618.027466,160.615402 619.224731,161.249344 
	C611.558228,165.289627 604.874756,169.123474 597.891357,172.297318 
	C595.864502,173.218460 592.963379,172.391617 590.489868,172.120972 
	C583.090942,171.311432 575.705383,170.380554 567.965637,168.394394 
	C570.274841,167.096985 572.584106,165.799591 575.204529,164.298462 
z"/>
<path fill="#1D1D1B" opacity="1.000000" stroke="none" 
	d="
M745.624390,161.407654 
	C748.805725,163.568832 751.756592,165.435547 754.573486,167.486328 
	C755.381470,168.074554 756.081238,169.141937 756.262085,170.097260 
	C756.333801,170.475693 754.914307,171.495605 754.078125,171.630585 
	C746.688660,172.823471 739.292786,174.012512 731.861206,174.880341 
	C730.230835,175.070740 728.262024,174.296585 726.774292,173.416733 
	C722.082703,170.642090 717.545654,167.606125 711.704895,163.877167 
	C717.924133,161.639099 723.169373,160.283890 727.910950,157.918915 
	C734.803711,154.480896 740.200623,156.550308 745.624390,161.407654 
z"/>
<path fill="#A2A2A2" opacity="1.000000" stroke="none" 
	d="
M640.038940,283.506836 
	C640.471313,283.096954 640.893860,283.059753 641.634644,283.019592 
	C642.897949,285.910522 643.843201,288.804382 644.788391,291.698242 
	C644.208069,291.902954 643.627747,292.107666 643.047363,292.312378 
	C642.041321,289.501434 641.035217,286.690460 640.038940,283.506836 
z"/>
<path fill="#080808" opacity="1.000000" stroke="none" 
	d="
M897.726318,288.005310 
	C897.984985,282.600220 896.420776,275.789551 899.006470,273.314606 
	C901.681396,270.754272 908.393188,272.124969 913.324036,272.274750 
	C920.788574,272.501556 928.126587,273.891388 934.430786,278.125336 
	C943.554443,284.252930 943.893860,296.371033 940.593506,306.232910 
	C937.137268,316.560577 929.113159,322.151733 918.526184,323.880341 
	C913.014587,324.780212 907.407471,325.084808 901.851624,325.727875 
	C898.486023,326.117401 897.623291,324.578796 897.667969,321.407227 
	C897.822510,310.441467 897.726746,299.472198 897.726318,288.005310 
z"/>
<path fill="#0A0A0A" opacity="1.000000" stroke="none" 
	d="
M1158.177490,290.001556 
	C1158.179321,284.836426 1158.010620,280.160095 1158.302734,275.512726 
	C1158.375732,274.355042 1159.908936,272.353241 1160.817139,272.326752 
	C1171.574341,272.013519 1182.396362,271.405304 1192.452271,276.612946 
	C1198.014771,279.493561 1201.402710,283.774750 1202.424194,289.993561 
	C1205.248535,307.189636 1196.130127,321.592834 1178.118286,324.138458 
	C1171.793091,325.032471 1165.426147,325.632294 1158.177490,326.470642 
	C1158.177490,313.670654 1158.177490,302.085846 1158.177490,290.001556 
z"/>
<path fill="#A2A2A2" opacity="1.000000" stroke="none" 
	d="
M1139.166748,402.407349 
	C1138.560059,401.388458 1137.201050,399.926086 1137.197510,398.460388 
	C1137.085083,353.173248 1137.094849,307.885773 1137.155396,262.598419 
	C1137.157227,261.247711 1137.904785,259.898010 1138.592041,258.626129 
	C1138.884766,304.463013 1138.888428,350.221588 1138.902222,395.980164 
	C1138.902832,397.974213 1138.996216,399.968231 1139.166748,402.407349 
z"/>
<path fill="#A2A2A2" opacity="1.000000" stroke="none" 
	d="
M1221.434326,280.221100 
	C1222.009399,280.788757 1222.480225,281.682251 1222.889648,282.916565 
	C1222.328735,282.353912 1221.829346,281.450409 1221.434326,280.221100 
z"/>
<path fill="#A2A2A2" opacity="1.000000" stroke="none" 
	d="
M1222.509766,302.880005 
	C1222.598755,303.743988 1222.392090,304.775940 1221.903442,305.958130 
	C1221.819092,305.088257 1222.016724,304.068146 1222.509766,302.880005 
z"/>
<path fill="#A2A2A2" opacity="1.000000" stroke="none" 
	d="
M1194.744141,259.554688 
	C1195.566772,259.386139 1196.558105,259.457947 1197.789062,259.825958 
	C1196.990112,260.013153 1195.951416,259.904083 1194.744141,259.554688 
z"/>
<path fill="#A2A2A2" opacity="1.000000" stroke="none" 
	d="
M1219.278320,275.226196 
	C1219.829224,275.500336 1220.347656,276.078827 1220.831299,276.981201 
	C1220.279541,276.713593 1219.762573,276.122070 1219.278320,275.226196 
z"/>
<path fill="#A2A2A2" opacity="1.000000" stroke="none" 
	d="
M1220.424561,309.744019 
	C1220.446289,310.339447 1220.204956,311.104218 1219.661865,311.976318 
	C1219.627197,311.360199 1219.894287,310.636749 1220.424561,309.744019 
z"/>
<path fill="#A2A2A2" opacity="1.000000" stroke="none" 
	d="
M1202.030273,261.322021 
	C1202.578003,261.314148 1203.232422,261.592804 1204.001343,262.122040 
	C1203.456299,262.117950 1202.796631,261.863251 1202.030273,261.322021 
z"/>
<path fill="#A2A2A2" opacity="1.000000" stroke="none" 
	d="
M1215.718994,318.019470 
	C1215.664917,318.566132 1215.362793,319.190247 1214.709229,319.924225 
	C1214.728882,319.388336 1215.099854,318.742615 1215.718994,318.019470 
z"/>
<path fill="#A2A2A2" opacity="1.000000" stroke="none" 
	d="
M1200.803955,330.405579 
	C1200.569824,330.963623 1200.036499,331.455048 1199.206787,331.947266 
	C1199.441895,331.411652 1199.973389,330.875305 1200.803955,330.405579 
z"/>
<path fill="#A2A2A2" opacity="1.000000" stroke="none" 
	d="
M1196.720459,333.025818 
	C1196.936401,333.533691 1196.880493,334.086548 1196.734253,335.049011 
	C1196.578857,334.662659 1196.513672,333.866730 1196.720459,333.025818 
z"/>
<path fill="#F8F8F8" opacity="1.000000" stroke="none" 
	d="
M1405.812744,402.928223 
	C1397.916382,391.273621 1390.411743,379.726227 1382.960449,368.144409 
	C1378.386353,361.034546 1373.894287,353.871887 1368.835449,345.897522 
	C1367.161865,347.517792 1365.421509,348.699524 1364.345703,350.321960 
	C1353.695190,366.385956 1343.054932,382.459076 1332.664551,398.691406 
	C1330.502686,402.068726 1328.116089,403.462646 1324.193359,403.133362 
	C1320.582520,402.830261 1316.926270,403.068909 1311.984741,403.068909 
	C1315.765747,397.124023 1318.940796,392.035370 1322.210571,387.008423 
	C1333.535278,369.597839 1344.829590,352.166656 1356.293701,334.848053 
	C1358.514893,331.492554 1358.648560,328.960968 1356.381226,325.406738 
	C1343.417603,305.085846 1330.743652,284.580017 1317.986328,264.127686 
	C1317.034546,262.601898 1316.198486,261.003967 1314.702271,258.373260 
	C1322.456543,258.373260 1329.315186,258.270599 1336.162720,258.501068 
	C1337.035156,258.530365 1337.989990,260.209564 1338.669189,261.275696 
	C1348.307861,276.403931 1357.900513,291.561493 1367.519775,306.702057 
	C1368.580322,308.371368 1369.737183,309.979523 1371.242920,312.195068 
	C1372.729980,310.873383 1374.317017,309.947876 1375.232422,308.574585 
	C1385.184692,293.644623 1395.119141,278.700958 1404.847046,263.624664 
	C1407.333496,259.770935 1410.069946,257.506531 1414.928467,258.071167 
	C1418.297363,258.462646 1421.748413,258.146454 1426.478027,258.146454 
	C1422.441284,264.440308 1419.209595,269.571503 1415.886719,274.642914 
	C1405.147217,291.033447 1394.432495,307.441010 1383.564453,323.746155 
	C1381.385376,327.015350 1381.598999,329.584564 1383.672119,332.840668 
	C1397.586548,354.696411 1411.329102,376.661621 1425.113770,398.599854 
	C1425.806763,399.702484 1426.374390,400.883759 1427.543091,403.020844 
	C1419.979004,403.020844 1413.103027,403.020844 1405.812744,402.928223 
z"/>
</svg>